<svg width="118" height="18" xmlns="http://www.w3.org/2000/svg" viewBox="0 0 512.43 54.95"><defs><style>.cls-1{fill:#ededed;}</style></defs><g id="Calque_2" data-name="Calque 2"><g id="Calque_1-2" data-name="Calque 1"><path class="cls-1" d="M18.89,32.23,0,3.41H13.77L24.42,22.22,35.71,3.41H48.85L30,32.23V53.68H18.89Z"/><path class="cls-1" d="M56.73,2.13a6.18,6.18,0,1,1-6.18,6.18A6.18,6.18,0,0,1,56.73,2.13Zm-5.33,17H62.05V53.68H51.4Z"/><path class="cls-1" d="M75.9,2.13a6.18,6.18,0,1,1-6.18,6.18A6.18,6.18,0,0,1,75.9,2.13Zm-5.33,17H81.22V53.68H70.57Z"/><path class="cls-1" d="M89.6,0h10.65V32.8L112,19.17H125.1L111.4,34.72l14.06,19H112L100.39,36.21h-.14V53.68H89.6Z"/><path class="cls-1" d="M129.79,19.17h10.65v5.54h.14c2.27-4.19,5.25-6.39,9.94-6.39a14.16,14.16,0,0,1,3.55.35V28.4a16.25,16.25,0,0,0-4.55-.71c-8.09,0-9.08,4.69-9.08,11.57V53.68H129.79Z"/><path class="cls-1" d="M164.86,2.13a6.18,6.18,0,1,1-6.18,6.18A6.18,6.18,0,0,1,164.86,2.13Zm-5.32,17h10.65V53.68H159.54Z"/><path class="cls-1" d="M210.89,15.69c-1.77-2.27-5.32-3.34-8-3.34-3.12,0-7.45,1.42-7.45,5.19,0,9.16,23.14,3.26,23.14,20.87,0,11.22-9,16.54-19.38,16.54a23.85,23.85,0,0,1-16.9-6.32L190.16,40a12.33,12.33,0,0,0,9.66,4.76c3.62,0,7.67-1.7,7.67-5.25,0-9.23-23.58-4.26-23.58-21,0-10.72,9.3-16.33,19.17-16.33,5.68,0,11.15,1.49,15.41,5.25Z"/><path class="cls-1" d="M226.16,19.17h10.22v4.69h.14a11.19,11.19,0,0,1,10.09-5.54c4.82,0,8.8,2,10.65,6.17,2.48-4.4,5.82-6.17,10.93-6.17,9.37,0,12.21,6.6,12.21,15V53.68H269.75V33.58c0-3.19-1.21-5.89-4.68-5.89-4.9,0-6.47,3.48-6.47,7.74V53.68H248V35.43c0-2.56.15-7.74-4.75-7.74-5.54,0-6.39,4.33-6.39,8.8V53.68H226.16Z"/><path class="cls-1" d="M310.29,49.34h-.14c-2.34,3.7-6.6,5.19-10.93,5.19-6.46,0-12.29-3.69-12.29-10.65,0-11.93,14.49-12.14,23.36-12.14,0-3.77-3.12-6.18-6.81-6.18a11.39,11.39,0,0,0-8.67,4.12l-5.68-5.82c3.91-3.7,9.59-5.54,15.2-5.54,12.42,0,15.76,6.32,15.76,17.82V53.68h-9.8Zm-2.62-10.79c-3.27,0-10.51.29-10.51,5,0,2.56,2.7,3.77,5,3.77,4.19,0,8.09-2.21,8.09-6.47V38.55Z"/><path class="cls-1" d="M327.47,19.17h10.65v5.54h.15c2.27-4.19,5.25-6.39,9.94-6.39a14.13,14.13,0,0,1,3.54.35V28.4a16.24,16.24,0,0,0-4.54-.71c-8.09,0-9.09,4.69-9.09,11.57V53.68H327.47Z"/><path class="cls-1" d="M380.58,27.69h-9.37v11.5c0,3.69.42,6.39,5,6.39,1.14,0,3.41-.14,4.33-1v8.87a22.09,22.09,0,0,1-7.45,1.07c-7.1,0-12.57-2.91-12.57-10.44V27.69h-6.82V19.17h6.82V9h10.65V19.17h9.37Z"/><path class="cls-1" d="M387.68,0h10.65V22.86h.14c2.42-3.34,6.54-4.54,10.94-4.54,9.8,0,15.76,8.8,15.76,18.39,0,10.43-6.75,17.82-17,17.82a13.36,13.36,0,0,1-10.58-5.4h-.14v4.55h-9.8ZM406,45.16c5.32,0,8.52-3.55,8.52-8.74s-3.2-8.73-8.52-8.73-8.52,3.55-8.52,8.73S400.67,45.16,406,45.16Z"/><path class="cls-1" d="M450,18.32c10.65,0,19.17,7.1,19.17,18.1S460.67,54.53,450,54.53s-19.17-7.1-19.17-18.11S439.37,18.32,450,18.32Zm0,26.84c5.32,0,8.52-3.55,8.52-8.74s-3.2-8.73-8.52-8.73-8.52,3.55-8.52,8.73S444.69,45.16,450,45.16Z"/><path class="cls-1" d="M485.45,35.22l-11.51-16h12.57l6.11,9.37,5.89-9.37h11.86l-11.22,16,13.28,18.46H499.86l-7.53-11.51-8.09,11.51H471.81Z"/></g></g></svg>
