<svg width="50" height="50" xmlns="http://www.w3.org/2000/svg" viewBox="0 0 213.7 213.7"><defs><style>.cls-1{fill:#312783;}.cls-2{fill:#f6f6f6;}</style></defs><g id="Calque_2" data-name="Calque 2"><g id="Calque_1-2" data-name="Calque 1"><circle class="cls-1" cx="106.85" cy="106.85" r="106.85"/><path class="cls-2" d="M91,124.24c1.84,5.78,6.33,10.12,17.71,10.12,10.09,0,13.22-3,13.22-7.38,0-4.64-2.8-7.36-19.18-10.21C70.45,111.12,65.8,100.11,65.8,88.61c0-17.28,16.26-27.35,40.13-27.35,29,0,40.72,13.43,41.84,26.35H120.18c-1-3.89-3.46-8.36-14.29-8.36-7.69,0-11.33,2.5-11.33,6.6s3.64,5.92,17.2,8.39c33,5.91,39.41,16.27,39.41,29.42,0,16.66-14,28.79-43.69,28.79-29.3,0-42.33-12.43-44.94-28.21Z"/></g></g></svg>
